# File created by Blade
# Date/Time:  Thu Sep 25 15:31:15 2014
# Frame Rate: 120.000 fps
#------------------------------------------------------
:FULLY-SPECIFIED
:DEGREES
1130
root -24.120971 36.534876 0.138774 342.687775 -74.325988 -146.064393
Spine -31.119152 8.165711 -7.993059
Head -93.576837 7.782817 0.133924
LeftShoulder -15.497741 -6.554088 38.501128
LeftArm 102.019747 -73.250944 -71.854652
LeftForeArm -8.453255 -0.000000 23.606867
LeftHand -43.430615 -0.000000 93.560153
LeftHandThumb1 -26.253704 0.000000 33.147579
RightShoulder -13.824860 21.647943 -35.141501
RightArm 69.308582 38.222581 31.328333
RightForeArm -24.236746 -0.000000 24.172618
RightHand -6.636417 -0.000000 -91.483948
RightHandThumb1 -24.326973 -0.000000 -32.862282
LeftUpLeg 13.713709 -2.592230 24.823551
LeftLeg 6.023749 -0.000000 -0.000000
LeftFoot 37.817711 33.068129 -13.669684
LeftToeBase 13.060653 -0.000000 -0.000000
RightUpLeg 15.131048 -13.956690 0.019799
RightLeg 20.922614 -0.000000 -0.000000
RightFoot 41.858314 13.758317 15.190935
RightToeBase 10.799406 -0.000000 -0.000000
1131
root -24.282882 36.409764 0.344263 343.914969 -72.658046 -147.592894
Spine -31.078207 8.393901 -7.747725
Head -93.071298 7.276131 -0.510585
LeftShoulder -15.474795 -6.478037 36.080264
LeftArm 98.314216 -72.505550 -63.734709
LeftForeArm -10.815616 0.000000 17.802801
LeftHand -41.763850 -0.000000 97.308433
LeftHandThumb1 -26.253704 0.000000 33.147579
RightShoulder -14.112784 20.976056 -35.188749
RightArm 70.161970 38.197085 31.347432
RightForeArm -25.280013 -0.000000 23.947538
RightHand -6.436950 -0.000000 -91.381213
RightHandThumb1 -24.326973 -0.000000 -32.862282
LeftUpLeg 13.014748 -2.619815 26.008464
LeftLeg 6.243406 -0.000000 -0.000000
LeftFoot 37.036506 32.809982 -13.522262
LeftToeBase 10.855316 -0.000000 -0.000000
RightUpLeg 15.581475 -14.432969 -0.295681
RightLeg 20.546135 -0.000000 -0.000000
RightFoot 42.053506 14.016540 15.384998
RightToeBase 11.470776 -0.000000 -0.000000
1132
root -24.455173 36.283917 0.552780 344.580513 -70.786639 -148.665101
Spine -30.910493 8.526752 -7.641239
Head -92.539672 6.886229 -1.201661
LeftShoulder -14.612289 0.103911 28.031052
LeftArm 123.604896 -74.070166 -79.937067
LeftForeArm -12.886032 -0.000000 13.851476
LeftHand -39.819145 -0.000000 89.960499
LeftHandThumb1 -26.253704 0.000000 33.147579
RightShoulder -14.209528 20.025829 -34.663701
RightArm 71.192898 38.536254 30.464229
RightForeArm -25.779369 0.000000 23.198242
RightHand -6.084543 0.000000 -91.229444
RightHandThumb1 -24.326973 -0.000000 -32.862282
LeftUpLeg 12.218927 -2.705877 27.107062
LeftLeg 6.403895 -0.000000 -0.000000
LeftFoot 35.859163 32.825199 -13.811425
LeftToeBase 9.407381 -0.000000 -0.000000
RightUpLeg 16.218123 -14.764574 -0.690487
RightLeg 20.049790 -0.000000 -0.000000
RightFoot 42.119849 14.412194 15.438545
RightToeBase 11.744113 -0.000000 -0.000000
1133
root -24.617530 36.178267 0.765138 344.871656 -68.701077 -149.309900
Spine -30.834221 8.456895 -7.776184
Head -91.844040 6.624262 -1.971091
LeftShoulder -14.457873 4.539724 22.564506
LeftArm 140.244631 -72.244277 -92.502835
LeftForeArm -12.461344 -0.000000 15.069510
LeftHand -39.325440 -0.000000 84.384296
LeftHandThumb1 -26.253704 0.000000 33.147579
RightShoulder -14.424094 19.662410 -34.544879
RightArm 71.754330 38.312152 29.699310
RightForeArm -26.451206 0.000000 22.456973
RightHand -5.816098 -0.000000 -91.030042
RightHandThumb1 -24.326973 -0.000000 -32.862282
LeftUpLeg 11.275525 -2.596987 28.191209
LeftLeg 6.464133 -0.000000 -0.000000
LeftFoot 34.201564 32.862436 -14.886880
LeftToeBase 7.932404 -0.000000 -0.000000
RightUpLeg 16.886287 -15.345235 -1.302239
RightLeg 19.575586 -0.000000 -0.000000
RightFoot 42.370487 15.087721 15.338820
RightToeBase 9.531431 -0.000000 -0.000000
1134
root -24.792663 36.093820 0.960299 345.049262 -66.601643 -149.645788
Spine -30.919551 8.300333 -8.235950
Head -91.423639 6.717090 -2.481373
LeftShoulder -14.717921 7.642094 20.354529
LeftArm 147.281527 -67.622618 -100.741592
LeftForeArm -8.939649 -0.000000 20.364588
LeftHand -40.265470 -0.000000 82.307301
LeftHandThumb1 -26.253704 0.000000 33.147579
RightShoulder -14.638091 19.282730 -34.375237
RightArm 71.800173 38.136512 28.403977
RightForeArm -26.522270 -0.000000 21.514155
RightHand -4.952369 -0.000000 -90.408046
RightHandThumb1 -24.326973 -0.000000 -32.862282
LeftUpLeg 10.065950 -2.224848 29.281388
LeftLeg 6.582712 -0.000000 -0.000000
LeftFoot 32.076589 32.777652 -16.432926
LeftToeBase 6.663098 -0.000000 -0.000000
RightUpLeg 17.336474 -15.671128 -1.811534
RightLeg 19.204951 -0.000000 -0.000000
RightFoot 42.241316 15.518300 14.942057
RightToeBase 8.758737 -0.000000 -0.000000
1135
root -24.974780 36.023451 1.140211 345.256399 -64.622228 -149.759148
Spine -31.202733 7.907230 -8.826686
Head -91.334758 7.288550 -2.693500
LeftShoulder -14.521428 9.326041 20.312076
LeftArm 147.195909 -65.143116 -103.474908
LeftForeArm -8.078456 0.000000 25.076655
LeftHand -41.014383 -0.000000 83.005409
LeftHandThumb1 -26.253704 0.000000 33.147579
RightShoulder -14.787264 19.164849 -34.352056
RightArm 71.463468 37.824441 27.185442
RightForeArm -26.229627 -0.000000 20.697548
RightHand -4.090711 -0.000000 -90.286478
RightHandThumb1 -24.326973 -0.000000 -32.862282
LeftUpLeg 8.646524 -1.501218 30.391775
LeftLeg 6.694460 -0.000000 -0.000000
LeftFoot 29.839235 32.423584 -18.068915
LeftToeBase 5.356792 -0.000000 -0.000000
RightUpLeg 17.527148 -15.612992 -2.147816
RightLeg 18.822807 -0.000000 -0.000000
RightFoot 41.880626 15.756802 14.316339
RightToeBase 9.090702 -0.000000 -0.000000
